<?xml version="1.0" standalone="no"?>
<!DOCTYPE svg PUBLIC "-//W3C//DTD SVG 20010904//EN"
 "http://www.w3.org/TR/2001/REC-SVG-20010904/DTD/svg10.dtd">
<svg version="1.0" xmlns="http://www.w3.org/2000/svg"
 width="270.000000pt" height="40.000000pt" viewBox="0 0 270.000000 40.000000"
 preserveAspectRatio="xMidYMid meet">

<g transform="translate(0.000000,40.000000) scale(0.100000,-0.100000)"
fill="#ffffff" stroke="none">
<path d="M1963 393 c22 -6 22 -7 -13 -58 -33 -49 -36 -55 -17 -55 6 0 26 22
43 48 25 39 29 50 18 60 -7 6 -21 11 -31 11 -17 -1 -17 -2 0 -6z"/>
<path d="M730 323 c1 -14 27 -43 39 -43 14 0 14 11 -3 33 -13 17 -36 24 -36
10z"/>
<path d="M972 314 c-40 -21 -62 -60 -62 -113 0 -80 89 -138 165 -107 36 15 45
36 22 54 -8 7 -18 7 -27 2 -29 -18 -68 -11 -89 16 -27 34 -27 58 0 85 18 18
29 20 70 15 40 -6 51 -4 56 9 16 42 -76 69 -135 39z"/>
<path d="M1147 324 c-4 -4 -7 -58 -7 -121 l0 -113 90 0 c89 0 90 0 90 25 0 24
-2 25 -65 25 -58 0 -65 2 -65 19 0 17 8 20 48 23 39 3 47 6 47 23 0 16 -8 21
-45 25 -32 4 -46 10 -48 22 -3 14 7 17 60 20 60 3 63 4 63 28 0 24 -2 25 -80
28 -45 1 -84 0 -88 -4z"/>
<path d="M1357 323 c-4 -3 -7 -57 -7 -120 l0 -113 85 0 c78 0 85 2 85 20 0 18
-7 20 -55 20 l-55 0 0 81 c0 44 -5 89 -10 100 -11 19 -31 25 -43 12z"/>
<path d="M1570 310 c-23 -23 -27 -82 -6 -99 7 -6 30 -17 51 -24 45 -16 54 -31
27 -46 -16 -8 -26 -6 -47 11 -24 18 -28 19 -42 6 -21 -22 -2 -53 42 -68 30
-10 41 -9 73 7 33 16 37 23 40 59 3 46 -6 57 -63 76 -21 7 -40 19 -43 25 -6
19 28 28 50 14 22 -14 48 0 48 25 0 35 -99 45 -130 14z"/>
<path d="M712 263 c20 -46 56 -93 72 -93 20 0 23 -7 -30 75 -14 22 -51 37 -42
18z"/>
<path d="M1946 245 c-9 -14 -23 -36 -32 -50 -15 -24 -15 -25 2 -25 16 0 52 47
72 93 9 19 -28 4 -42 -18z"/>
<path d="M830 240 c0 -5 7 -10 15 -10 8 0 15 5 15 10 0 6 -7 10 -15 10 -8 0
-15 -4 -15 -10z"/>
<path d="M1840 240 c0 -5 7 -10 15 -10 8 0 15 5 15 10 0 6 -7 10 -15 10 -8 0
-15 -4 -15 -10z"/>
<path d="M743 162 c-7 -4 13 -32 58 -80 58 -61 68 -68 63 -45 -8 35 -105 135
-121 125z"/>
<path d="M1893 117 c-28 -29 -54 -65 -58 -82 -3 -16 -5 -28 -3 -25 2 3 34 37
71 76 48 50 64 73 54 77 -9 3 -35 -15 -64 -46z"/>
<path d="M840 135 c0 -8 4 -15 10 -15 5 0 7 7 4 15 -4 8 -8 15 -10 15 -2 0 -4
-7 -4 -15z"/>
<path d="M1843 135 c0 -8 4 -15 9 -15 4 0 8 7 8 15 0 8 -4 15 -8 15 -5 0 -9
-7 -9 -15z"/>
<path d="M1740 115 c0 -20 5 -25 25 -25 20 0 25 5 25 25 0 20 -5 25 -25 25
-20 0 -25 -5 -25 -25z"/>
<path d="M876 37 c3 -10 9 -15 12 -12 3 3 0 11 -7 18 -10 9 -11 8 -5 -6z"/>
<path d="M1815 39 c-4 -6 -5 -12 -2 -15 2 -3 7 2 10 11 7 17 1 20 -8 4z"/>
</g>
</svg>
